{"accessors":[{"bufferView":3,"componentType":5126,"count":98,"max":[6.026545524597168,14.007635116577148,2.4212844371795654],"min":[-6.026545524597168,9.506214141845703,-2.4212844371795654],"type":"VEC3"},{"bufferView":3,"byteOffset":1176,"componentType":5126,"count":98,"max":[0.9448310136795044,0.999839186668396,0.9991438388824463],"min":[-0.9448310732841492,-0.9997218251228333,-1],"type":"VEC3"},{"bufferView":4,"componentType":5126,"count":98,"max":[0.9997074007987976,0.9991438984870911,0.555618941783905,1],"min":[-0.9997074007987976,-0.9750889539718628,-0.9998392462730408,-1],"type":"VEC4"},{"bufferView":2,"componentType":5126,"count":98,"max":[0.9925599694252014,0.996964156627655],"min":[0.008049070835113525,0.4398438632488251],"type":"VEC2"},{"bufferView":1,"componentType":5125,"count":324,"max":[97],"min":[0],"type":"SCALAR"},{"bufferView":3,"byteOffset":2352,"componentType":5126,"count":90,"max":[7.016330718994141,10.368847846984863,1.6792353391647339],"min":[-7.016330718994141,6.457785129547119,-2.231828451156616],"type":"VEC3"},{"bufferView":3,"byteOffset":3432,"componentType":5126,"count":90,"max":[1,1,1],"min":[-1,-1,-1],"type":"VEC3"},{"bufferView":4,"byteOffset":1568,"componentType":5126,"count":90,"max":[0.40775901079177856,1,1,1],"min":[-0.40775904059410095,-1,-1,-1],"type":"VEC4"},{"bufferView":2,"byteOffset":784,"componentType":5126,"count":90,"max":[0.9978196620941162,0.3794392943382263],"min":[0.6680173873901367,0.06727613508701324],"type":"VEC2"},{"bufferView":1,"byteOffset":1296,"componentType":5125,"count":264,"max":[89],"min":[0],"type":"SCALAR"},{"bufferView":3,"byteOffset":4512,"componentType":5126,"count":22,"max":[8.413591384887695,9.074028015136719,1.0367721319198608],"min":[-8.413591384887695,7.7673821449279785,-1.589365005493164],"type":"VEC3"},{"bufferView":3,"byteOffset":4776,"componentType":5126,"count":22,"max":[0.9541388154029846,0.6941230893135071,0.5545457601547241],"min":[-0.9216756820678711,-0.9312455058097839,-0.8538705706596375],"type":"VEC3"},{"bufferView":4,"byteOffset":3008,"componentType":5126,"count":22,"max":[0.9997032880783081,0.9943869113922119,0.7920478582382202,1],"min":[-0.9759595990180969,-0.005564799532294273,-0.849211573600769,-1],"type":"VEC4"},{"bufferView":2,"byteOffset":1504,"componentType":5126,"count":22,"max":[0.9696469306945801,0.6998791694641113],"min":[0.7239589095115662,0.5287779569625854],"type":"VEC2"},{"bufferView":1,"byteOffset":2352,"componentType":5125,"count":108,"max":[21],"min":[0],"type":"SCALAR"},{"bufferView":3,"byteOffset":5040,"componentType":5126,"count":113,"max":[4.927365303039551,11.469712257385254,3.812976837158203],"min":[-4.927365303039551,-0.0002422332763671875,-3.945812702178955],"type":"VEC3"},{"bufferView":3,"byteOffset":6396,"componentType":5126,"count":113,"max":[0.9980009198188782,0.9817706942558289,0.9786144495010376],"min":[-0.998000979423523,-1,-0.9853461384773254],"type":"VEC3"},{"bufferView":4,"byteOffset":3360,"componentType":5126,"count":113,"max":[1,0.44894617795944214,0.9992486834526062,1],"min":[-1,-0.3168789744377136,-0.9990413784980774,1],"type":"VEC4"},{"bufferView":2,"byteOffset":1680,"componentType":5126,"count":113,"max":[0.6636901497840881,0.4882186949253082],"min":[0.014691914431750774,0.008332524448633194],"type":"VEC2"},{"bufferView":1,"byteOffset":2784,"componentType":5125,"count":330,"max":[112],"min":[0],"type":"SCALAR"},{"bufferView":3,"byteOffset":7752,"componentType":5126,"count":38,"max":[1.2778739929199219,0.7380770444869995,1.2957180738449097],"min":[-1.2778738737106323,-1.043798565864563,-1.1349424123764038],"type":"VEC3"},{"bufferView":3,"byteOffset":8208,"componentType":5126,"count":38,"max":[0.9336366653442383,0.9999405741691589,0.9899969696998596],"min":[-0.9336367249488831,-1,-0.7811459302902222],"type":"VEC3"},{"bufferView":4,"byteOffset":5168,"componentType":5126,"count":38,"max":[0.9998847246170044,0.3142709732055664,0.9514167904853821,1],"min":[-1,-0.3142709732055664,-0.9510565400123596,1],"type":"VEC4"},{"bufferView":2,"byteOffset":2584,"componentType":5126,"count":38,"max":[0.568535566329956,0.2962148189544678],"min":[0.4774768352508545,0.24992159008979797],"type":"VEC2"},{"bufferView":1,"byteOffset":4104,"componentType":5125,"count":90,"max":[37],"min":[0],"type":"SCALAR"},{"bufferView":5,"componentType":5126,"count":30,"max":[1,1,1,0,0.99992436170578,1,0.9974790215492249,0,0.06614993512630463,0.9985979795455933,1,0,6.4527459144592285,12.419899940490723,1.5,1],"min":[-1.380163325848116e-7,-1,-1,0,-0.9985979795455933,-1,-0.07380396127700806,0,-0.9963598847389221,-0.05399579927325249,-1,0,-10.873799324035645,-12.41985034942627,-4.701399326324463,1],"type":"MAT4"},{"bufferView":0,"componentType":5123,"count":98,"max":[14,14,12,12],"min":[12,12,12,12],"type":"VEC4"},{"bufferView":4,"byteOffset":5776,"componentType":5126,"count":98,"max":[1,0.43529412150382996,0,0],"min":[0.5647058486938477,0,0,0],"type":"VEC4"},{"bufferView":0,"byteOffset":784,"componentType":5123,"count":90,"max":[18,18,19,7],"min":[7,7,7,7],"type":"VEC4"},{"bufferView":4,"byteOffset":7344,"componentType":5126,"count":90,"max":[1,0.46078431606292725,0.0684821605682373,0],"min":[0.5214800238609314,0,0,0],"type":"VEC4"},{"bufferView":0,"byteOffset":1504,"componentType":5123,"count":22,"max":[19,19,19,19],"min":[9,19,19,19],"type":"VEC4"},{"bufferView":4,"byteOffset":8784,"componentType":5126,"count":22,"max":[1,0,0,0],"min":[1,0,0,0],"type":"VEC4"},{"bufferView":0,"byteOffset":1680,"componentType":5123,"count":113,"max":[29,29,29,29],"min":[2,2,2,2],"type":"VEC4"},{"bufferView":4,"byteOffset":9136,"componentType":5126,"count":113,"max":[1,0.41556787490844727,0.25644809007644653,0.21766309440135956],"min":[0.26466941833496094,0,0,0],"type":"VEC4"}],"asset":{"extras":{"author":"the-regressor (https://sketchfab.com/the-regressor)","license":"CC-BY-4.0 (http://creativecommons.org/licenses/by/4.0/)","source":"https://sketchfab.com/3d-models/baby-yoda-75d8bec8e091499283f7c2e6e85ce571","title":"Baby Yoda"},"generator":"Sketchfab-7.27.0","version":"2.0"},"bufferViews":[{"buffer":0,"byteLength":2584,"byteOffset":0,"byteStride":8,"name":"shortBufferViews","target":34962},{"buffer":0,"byteLength":4464,"byteOffset":2584,"name":"floatBufferViews","target":34963},{"buffer":0,"byteLength":2888,"byteOffset":7048,"byteStride":8,"name":"floatBufferViews","target":34962},{"buffer":0,"byteLength":8664,"byteOffset":9936,"byteStride":12,"name":"floatBufferViews","target":34962},{"buffer":0,"byteLength":10944,"byteOffset":18600,"byteStride":16,"name":"floatBufferViews","target":34962},{"buffer":0,"byteLength":1920,"byteOffset":29544,"byteStride":64,"name":"floatBufferViews"}],"buffers":[{"byteLength":31464,"uri":"data:application/octet-stream;base64,"}],"extensionsUsed":["KHR_materials_unlit"],"images":[{"uri":"data:application/octet-stream;base64,"}],"materials":[{"doubleSided":true,"emissiveFactor":[0,0,0],"extensions":{"KHR_materials_unlit":{}},"name":"BB_Yoda_MAT","pbrMetallicRoughness":{"baseColorFactor":[1,1,1,1],"baseColorTexture":{"index":0,"texCoord":0},"metallicFactor":0,"roughnessFactor":1}},{"doubleSided":true,"emissiveFactor":[0,0,0],"extensions":{"KHR_materials_unlit":{}},"name":"BB_Yoda_MAT_0","pbrMetallicRoughness":{"baseColorFactor":[1,1,1,1],"baseColorTexture":{"index":0,"texCoord":0},"metallicFactor":0,"roughnessFactor":1}},{"doubleSided":true,"emissiveFactor":[0,0,0],"extensions":{"KHR_materials_unlit":{}},"name":"BB_Yoda_MAT_1","pbrMetallicRoughness":{"baseColorFactor":[1,1,1,1],"baseColorTexture":{"index":0,"texCoord":0},"metallicFactor":0,"roughnessFactor":1}},{"doubleSided":true,"emissiveFactor":[0,0,0],"extensions":{"KHR_materials_unlit":{}},"name":"BB_Yoda_MAT_2","pbrMetallicRoughness":{"baseColorFactor":[1,1,1,1],"baseColorTexture":{"index":1,"texCoord":0},"metallicFactor":0,"roughnessFactor":1}},{"doubleSided":true,"emissiveFactor":[0,0,0],"extensions":{"KHR_materials_unlit":{}},"name":"BB_Yoda_MAT_3","pbrMetallicRoughness":{"baseColorFactor":[1,1,1,1],"baseColorTexture":{"index":0,"texCoord":0},"metallicFactor":0,"roughnessFactor":1}}],"meshes":[{"name":"head_GEO_BB_Yoda_MAT_0","primitives":[{"attributes":{"JOINTS_0":26,"NORMAL":1,"POSITION":0,"TANGENT":2,"TEXCOORD_0":3,"WEIGHTS_0":27},"indices":4,"material":0,"mode":4}]},{"name":"arm_GEO_BB_Yoda_MAT_0","primitives":[{"attributes":{"JOINTS_0":28,"NORMAL":6,"POSITION":5,"TANGENT":7,"TEXCOORD_0":8,"WEIGHTS_0":29},"indices":9,"material":1,"mode":4}]},{"name":"hands_GEO_BB_Yoda_MAT_0","primitives":[{"attributes":{"JOINTS_0":30,"NORMAL":11,"POSITION":10,"TANGENT":12,"TEXCOORD_0":13,"WEIGHTS_0":31},"indices":14,"material":2,"mode":4}]},{"name":"body_GEO_BB_Yoda_MAT_0","primitives":[{"attributes":{"JOINTS_0":32,"NORMAL":16,"POSITION":15,"TANGENT":17,"TEXCOORD_0":18,"WEIGHTS_0":33},"indices":19,"material":3,"mode":4}]},{"name":"cup_GEO_BB_Yoda_MAT_0","primitives":[{"attributes":{"NORMAL":21,"POSITION":20,"TANGENT":22,"TEXCOORD_0":23},"indices":24,"material":4,"mode":4}]}],"nodes":[{"children":[1],"name":"RootNode (gltf orientation matrix)","rotation":[-0.7071067811865475,0,0,0.7071067811865476]},{"children":[2],"name":"RootNode (model correction matrix)"},{"children":[3],"matrix":[1,0,0,0,0,0,1,0,0,-1,0,0,0,0,0,1],"name":"BabyYoda.fbx"},{"children":[4],"name":"RootNode"},{"children":[5,7,9,11,13,6,8,10,12,43],"name":""},{"children":[14],"name":"_rootJoint"},{"matrix":[1,-7.703719777548943e-32,0,0,7.703719777548943e-32,1,1.734723475976807e-18,0,-1.3363823550460978e-49,-1.734723475976807e-18,1,0,0,0,0,1],"name":""},{"mesh":0,"name":"","skin":0},{"matrix":[1,4.930380657631324e-32,0,0,-4.930380657631324e-32,1,0,0,0,0,1,0,0,-1.7763568394002505e-15,0,1],"name":""},{"mesh":1,"name":"","skin":0},{"matrix":[1,-7.703719777548943e-32,0,0,7.703719777548943e-32,1,1.734723475976807e-18,0,-1.3363823550460978e-49,-1.734723475976807e-18,1,0,0,0,0,1],"name":""},{"mesh":2,"name":"","skin":0},{"matrix":[1,4.2274162279299827e-32,-3.0814879110195774e-33,0,-4.2274162279299827e-32,1,0,0,3.0814879110195774e-33,1.3026732001214224e-64,1,0,-2.742524240807424e-31,0,5.551115123125783e-17,1],"name":""},{"mesh":3,"name":"","skin":0},{"children":[15],"name":"root_00"},{"children":[16,33,38],"name":"hip_jnt_03","rotation":[0.022262994199991226,-0.022262994199991226,0.7067562341690063,0.7067562341690063],"translation":[0,4.909832954406738,-0.019144898280501366]},{"children":[17],"name":"spine_jnt_01_02","rotation":[0.9976599216461182,-8.00947605129868e-17,-0.06837201118469238,-1.168714037764855e-15],"translation":[0.3765784502029419,-1.5551728728891887e-16,0.007917392067611217]},{"children":[18],"name":"spine_jnt_02_04","rotation":[-1.2246131036161757e-16,0.007425121497362852,9.093150978861743e-19,0.9999724626541138],"translation":[1.25,-1.9486258919930617e-14,0.011286593042314053]},{"children":[19,23,29],"name":"spine_jnt_03_01","rotation":[0.9997271299362183,6.61713181256237e-18,-0.023359231650829315,2.8319964256296295e-16],"translation":[1.25,-1.23805893109067e-14,0.0044656298123300076]},{"children":[20],"name":"L_clavic_jnt_05","rotation":[0.6285244226455688,-0.37709781527519226,-0.5692034959793091,0.372507244348526],"translation":[0.6378310322761536,-2.2537875175476074,0.3100453317165375]},{"children":[21],"name":"L_shldr_jnt_06","rotation":[0.5033374428749084,0.780380129814148,-0.12406354397535324,-0.3496665954589844],"translation":[0.068292036652565,0.5982429385185242,-0.01630030758678913]},{"children":[22],"name":"L_elbow_jnt_07","rotation":[0.004195597022771835,-0.5684738159179688,0.006409375928342342,0.822665810585022],"translation":[1.875,-0.000003961777565564262,0.000009436134860152379]},{"name":"L_wrist_jnt_08","rotation":[-0.6059964895248413,-0.0848952904343605,-0.2518061697483063,0.7497697472572327],"translation":[1.875,-0.000003716789478858118,0.000006421967555070296]},{"children":[24],"name":"neck_jnt_02_09","rotation":[0.999229907989502,-2.8991857259838007e-16,0.03923808038234711,7.38301445397634e-15],"translation":[1.25,-1.8438318905543427e-13,-0.001263574231415987]},{"children":[25],"name":"neck_jnt_01_010","rotation":[5.663642391377332e-16,-0.02587585523724556,1.4660065747995656e-17,0.9996652603149414],"translation":[1,-6.594830179523716e-16,0.028067665174603462]},{"children":[26,27,28],"name":"head_jnt_011","rotation":[0.9999496340751648,-6.301630651273926e-17,-0.010036871768534184,-6.278165006368564e-15],"translation":[0.8571617007255554,-1.0897294859828124e-14,0.007973935455083847]},{"name":"L_ear_jnt_012","rotation":[-0.012202246114611626,0.012202246114611626,-0.7070015072822571,0.7070015072822571],"translation":[1.5386537313461304,-3.1793582439422607,0.09028903394937515]},{"name":"R_ear_jnt_013","rotation":[0.7070015072822571,-0.7070015072822571,-0.012202246114611626,0.012202246114611626],"translation":[1.5387036800384521,3.1793599128723145,0.09028730541467667]},{"name":"head_jnt_011_0"},{"children":[30],"name":"R_clavic_jnt_014","rotation":[-0.5700265169143677,-0.36421602964401245,0.6706218719482422,0.30443841218948364],"translation":[0.6378391981124878,2.2536301612854004,0.31005483865737915]},{"children":[31],"name":"R_shldr_jnt_015","rotation":[0.23333780467510223,0.29963141679763794,0.44511744379997253,0.8109530806541443],"translation":[-0.06828418374061584,-0.5982469916343689,0.01630234532058239]},{"children":[32],"name":"R_elbow_jnt_016","rotation":[0.0025242120027542114,-0.46099188923835754,0.005176424514502287,0.8873857855796814],"translation":[-1.8749985694885254,2.0149855117779225e-7,-0.000021048572307336144]},{"name":"R_wrist_jnt_017","rotation":[-0.5243058204650879,-0.017324937507510185,-0.35456156730651855,0.7740086317062378],"translation":[-1.8750019073486328,0.000027646969101624563,-0.000013928483895142563]},{"children":[34],"name":"L_hip_018","rotation":[-0.011051483452320099,0.7511224746704102,-0.027115700766444206,0.6595132350921631],"translation":[-0.23685166239738464,-1.5,0.013621633872389793]},{"children":[35],"name":"L_knee_019","rotation":[-0.5479934215545654,0.4612829089164734,0.47671976685523987,0.5095682144165039],"translation":[0.02435201033949852,-0.048941269516944885,-2]},{"children":[36],"name":"L_ankle_020","rotation":[-2.909857017630225e-16,-1.844287849448641e-16,0.5353376269340515,0.8446381688117981],"translation":[2.1586034297943115,0.009951742365956306,-0.0021818324457854033]},{"children":[37],"name":"L_ball_021","rotation":[2.2294757706653456e-10,3.055069738855387e-11,0.13576221466064453,0.9907415509223938],"translation":[0.5851914882659912,-0.06254515796899796,-8.124168004997046e-12]},{"name":"L_toe_022","rotation":[-0.07817880064249039,0.7027717232704163,0.07817880064249039,0.7027717232704163],"translation":[0.5887694358825684,0.016714151948690414,-2.591949321839593e-9]},{"children":[39],"name":"R_hip_023","rotation":[0.705604612827301,0.046066444367170334,-0.046066444367170334,0.705604612827301],"translation":[-0.2368641346693039,1.5,0.013622419908642769]},{"children":[40],"name":"R_knee_024","rotation":[-7.874326795847627e-31,-4.744819470399219e-32,0.0601477324962616,0.9981895089149475],"translation":[-2,-0.02438456192612648,0]},{"children":[41],"name":"R_ankle_025","rotation":[5.4367561119761376e-8,7.486914199716921e-9,-0.5353384017944336,0.8446376919746399],"translation":[-2.159196376800537,0.009908124804496765,2.1724457788252494e-9]},{"children":[42],"name":"R_ball_026","rotation":[3.2053817378141503e-9,2.3391878656298104e-8,-0.13576100766658783,0.9907416105270386],"translation":[-0.5851905941963196,-0.06254465132951736,1.3473364646188202e-8]},{"name":"R_toe_027","rotation":[0.7027717232704163,-0.07817880064249039,0.7027717232704163,0.07817880064249039],"translation":[-0.5887705087661743,0.016714246943593025,2.8898725190629193e-8]},{"children":[44],"name":"BB_Yoda_grp"},{"children":[45],"matrix":[1,0,0,0,0,1,0,0,0,0,1,0,0.1346108466386795,9.5796537399292,4.041422367095947,1],"name":"cup_GEO"},{"mesh":4,"name":"cup_GEO_BB_Yoda_MAT_0"}],"samplers":[{"magFilter":9728,"minFilter":9728,"wrapS":10497,"wrapT":10497},{"magFilter":9728,"minFilter":9986,"wrapS":10497,"wrapT":10497}],"scene":0,"scenes":[{"name":"OSG_Scene","nodes":[0]}],"skins":[{"inverseBindMatrices":25,"joints":[5,14,15,16,17,18,19,20,21,22,23,24,25,26,27,28,29,30,31,32,33,34,35,36,37,38,39,40,41,42],"skeleton":5}],"textures":[{"sampler":0,"source":0},{"sampler":1,"source":0}]}